<?xml version="1.0" standalone="no"?>
<!DOCTYPE svg PUBLIC "-//W3C//DTD SVG 20010904//EN"
 "http://www.w3.org/TR/2001/REC-SVG-20010904/DTD/svg10.dtd">
<svg version="1.0" xmlns="http://www.w3.org/2000/svg"
 width="196.000000pt" height="196.000000pt" viewBox="0 0 196.000000 196.000000"
 preserveAspectRatio="xMidYMid meet">
<metadata>
Created by potrace 1.14, written by Peter Selinger 2001-2017
</metadata>
<g transform="translate(0.000000,196.000000) scale(0.100000,-0.100000)"
fill="#000000" stroke="none">
<path d="M930 1946 c-5 -5 -10 -7 -10 -3 0 4 -22 -4 -48 -17 -42 -21 -57 -24
-136 -20 -64 4 -101 1 -136 -11 -48 -16 -69 -42 -55 -65 6 -10 -1 -14 -47 -24
-16 -4 -28 -10 -28 -15 0 -5 10 -7 23 -3 14 3 5 -8 -28 -35 -121 -96 -161
-180 -155 -328 6 -157 5 -170 -21 -206 -13 -19 -34 -55 -46 -80 -11 -26 -38
-65 -58 -88 -48 -52 -35 -53 103 -7 l102 35 0 -25 c0 -24 46 -104 60 -104 13
0 32 -57 28 -86 -2 -24 -8 -29 -30 -30 -35 -1 -53 -17 -85 -73 -15 -25 -44
-70 -66 -99 -33 -44 -39 -58 -34 -86 4 -27 -4 -51 -49 -132 -30 -54 -52 -104
-50 -111 7 -16 74 -50 116 -58 19 -3 100 -7 180 -8 136 -2 149 -4 200 -29 30
-15 91 -57 135 -93 125 -104 207 -140 328 -144 60 -2 67 0 67 16 0 31 -74 174
-137 266 l-60 86 10 49 c9 43 8 52 -7 67 -11 11 -15 26 -12 39 3 12 6 42 6 67
0 51 16 67 50 49 11 -6 32 -11 47 -11 15 -1 49 -8 75 -16 35 -11 56 -12 83 -4
62 17 79 55 49 113 -18 34 -12 78 11 78 8 0 15 5 15 10 0 17 43 11 78 -10 42
-26 66 -81 58 -133 -5 -28 -2 -47 10 -65 9 -14 23 -52 30 -84 18 -77 46 -131
81 -153 36 -24 106 -28 148 -8 52 25 70 66 80 188 4 49 2 56 -18 66 -31 17
-137 15 -148 -2 -5 -8 -8 -43 -8 -77 1 -66 -9 -89 -35 -79 -18 7 -47 101 -52
166 -2 25 -9 50 -17 56 -7 5 -18 29 -25 51 -22 75 -80 124 -146 124 -20 0 -25
6 -29 38 -3 20 -8 46 -11 57 -11 36 6 48 51 36 45 -12 73 -6 73 15 0 28 -83
180 -114 209 -34 32 -36 40 -20 69 12 19 34 19 113 2 35 -8 140 -10 147 -3 6
5 -70 80 -165 164 -27 23 -45 51 -57 86 -31 95 -73 178 -106 209 -41 38 -113
88 -128 88 -6 0 -9 4 -5 10 3 5 12 7 19 4 8 -3 17 -1 21 5 3 6 -1 11 -11 11
-10 0 -46 5 -82 11 l-64 11 41 19 c45 20 52 42 21 59 -24 13 -106 10 -120 -4z
m87 -23 c6 -17 -40 -27 -85 -18 l-37 8 45 13 c52 14 72 14 77 -3z m-377 -53
c-28 -22 -64 -27 -58 -8 4 12 38 25 68 27 9 0 6 -7 -10 -19z m93 3 c-7 -2 -19
-2 -25 0 -7 3 -2 5 12 5 14 0 19 -2 13 -5z"/>
</g>
</svg>
